<svg width="94" height="45" viewBox="0 0 94 45" fill="none" xmlns="http://www.w3.org/2000/svg">
<path d="M1 11.75C1 8.89892 2.07698 6.16462 3.99402 4.1486C5.91106 2.13259 8.51112 1 11.2222 1H82.7778C85.4889 1 88.0889 2.13259 90.006 4.1486C91.923 6.16462 93 8.89892 93 11.75V33.25C93 36.1011 91.923 38.8354 90.006 40.8514C88.0889 42.8674 85.4889 44 82.7778 44H11.2222C8.51112 44 5.91106 42.8674 3.99402 40.8514C2.07698 38.8354 1 36.1011 1 33.25V11.75Z" fill="#74F325" stroke="#348700" stroke-width="2" stroke-linecap="round" stroke-linejoin="round"/>
<path d="M21.4395 44V27.875C21.4395 26.4495 21.9779 25.0823 22.9365 24.0743C23.895 23.0663 25.195 22.5 26.5506 22.5H67.4395C68.795 22.5 70.095 23.0663 71.0536 24.0743C72.0121 25.0823 72.5506 26.4495 72.5506 27.875V44" fill="#74F325"/>
<path d="M21.4395 44V27.875C21.4395 26.4495 21.9779 25.0823 22.9365 24.0743C23.895 23.0663 25.195 22.5 26.5506 22.5H67.4395C68.795 22.5 70.095 23.0663 71.0536 24.0743C72.0121 25.0823 72.5506 26.4495 72.5506 27.875V44" stroke="#348700" stroke-width="2" stroke-linecap="round" stroke-linejoin="round"/>
</svg>
