<svg width="102" height="102" viewBox="0 0 102 102" fill="none" xmlns="http://www.w3.org/2000/svg">
<path fill-rule="evenodd" clip-rule="evenodd" d="M12.4368 2.13472C11.0627 0.807566 9.22228 0.0732065 7.31198 0.0898064C5.40169 0.106406 3.57435 0.872637 2.22352 2.22347C0.872685 3.5743 0.106454 5.40165 0.0898543 7.31194C0.0732543 9.22223 0.807614 11.0626 2.13477 12.4367L40.698 51L2.13477 89.5633C1.43891 90.2354 0.883863 91.0393 0.502026 91.9282C0.120189 92.8171 -0.0807961 93.7731 -0.0892025 94.7405C-0.0976088 95.7079 0.0867322 96.6673 0.453064 97.5627C0.819396 98.4581 1.36038 99.2715 2.04446 99.9556C2.72853 100.64 3.542 101.181 4.43739 101.547C5.33277 101.913 6.29215 102.098 7.25955 102.089C8.22694 102.081 9.18297 101.88 10.0719 101.498C10.9607 101.116 11.7647 100.561 12.4368 99.8653L51 61.302L89.5633 99.8653C90.9374 101.192 92.7778 101.927 94.6881 101.91C96.5984 101.894 98.4258 101.127 99.7766 99.7765C101.127 98.4257 101.894 96.5984 101.91 94.6881C101.927 92.7778 101.192 90.9374 99.8653 89.5633L61.302 51L99.8653 12.4367C101.192 11.0626 101.927 9.22223 101.91 7.31194C101.894 5.40165 101.127 3.5743 99.7766 2.22347C98.4258 0.872637 96.5984 0.106406 94.6881 0.0898064C92.7778 0.0732065 90.9374 0.807566 89.5633 2.13472L51 40.698L12.4368 2.13472Z" fill="#FF4856"/>
</svg>
