<svg width="25" height="25" viewBox="0 0 25 25" fill="none" xmlns="http://www.w3.org/2000/svg">
<g clip-path="url(#clip0_86_93)">
<path d="M12.5 25C10.813 25 9.1748 24.6704 7.63428 24.0186C6.14502 23.3887 4.80957 22.4854 3.66211 21.3379C2.51465 20.1904 1.61133 18.855 0.981445 17.3657C0.32959 15.8252 0 14.187 0 12.5C0 12.0142 0.393066 11.6211 0.878906 11.6211C1.36475 11.6211 1.75781 12.0142 1.75781 12.5C1.75781 13.9502 2.04102 15.3564 2.60254 16.6821C3.14453 17.9614 3.91846 19.1113 4.90479 20.0977C5.89111 21.084 7.04102 21.8604 8.32031 22.3999C9.64355 22.959 11.0498 23.2422 12.5 23.2422C13.9502 23.2422 15.3564 22.959 16.6821 22.3975C17.9614 21.8555 19.1113 21.0815 20.0977 20.0952C21.084 19.1089 21.8604 17.959 22.3999 16.6797C22.959 15.3564 23.2422 13.9502 23.2422 12.5C23.2422 11.0498 22.959 9.64355 22.3975 8.31787C21.8573 7.04166 21.0755 5.88188 20.0952 4.90234C19.1168 3.92069 17.9567 3.13875 16.6797 2.6001C15.3564 2.04102 13.9502 1.75781 12.5 1.75781C12.0142 1.75781 11.6211 1.36475 11.6211 0.878906C11.6211 0.393066 12.0142 0 12.5 0C14.187 0 15.8252 0.32959 17.3657 0.981445C18.855 1.61133 20.1904 2.51465 21.3379 3.66211C22.4854 4.80957 23.3862 6.14746 24.0161 7.63428C24.668 9.1748 24.9976 10.813 24.9976 12.5C24.9976 14.187 24.668 15.8252 24.0161 17.3657C23.3887 18.855 22.4854 20.1904 21.3379 21.3379C20.1904 22.4854 18.8525 23.3862 17.3657 24.0161C15.8252 24.6704 14.187 25 12.5 25Z" fill="#FF4856"/>
</g>
<defs>
<clipPath id="clip0_86_93">
<rect width="25" height="25" fill="white"/>
</clipPath>
</defs>
</svg>
