<svg width="24" height="24" viewBox="0 0 24 24" fill="none" xmlns="http://www.w3.org/2000/svg">
<path fill-rule="evenodd" clip-rule="evenodd" d="M16.48 14H20.5C21.163 14 21.7989 13.7366 22.2678 13.2678C22.7366 12.7989 23 12.163 23 11.5C23 10.837 22.7366 10.2011 22.2678 9.73223C21.7989 9.26339 21.163 9 20.5 9H6.618C6.43234 8.9999 6.25037 8.94812 6.09248 8.85045C5.93458 8.75278 5.80699 8.61308 5.724 8.447L5.276 7.553C5.19301 7.38692 5.06542 7.24722 4.90753 7.14955C4.74963 7.05188 4.56767 7.0001 4.382 7H2.517C2.35144 6.99985 2.18843 7.04082 2.0426 7.11921C1.89677 7.19761 1.77269 7.31099 1.68149 7.44917C1.5903 7.58736 1.53483 7.74602 1.52009 7.91093C1.50534 8.07584 1.53177 8.24183 1.597 8.394L3.74 13.394C3.81716 13.574 3.94548 13.7274 4.10903 13.8351C4.27258 13.9428 4.46416 14.0002 4.66 14H8.523C8.68633 14.0001 8.84715 14.0402 8.9914 14.1168C9.13565 14.1934 9.25894 14.3042 9.3505 14.4395C9.44205 14.5747 9.49908 14.7303 9.5166 14.8927C9.53412 15.0551 9.5116 15.2193 9.451 15.371L8.55 17.63C8.48965 17.7815 8.46728 17.9456 8.48485 18.1077C8.50243 18.2699 8.5594 18.4253 8.65082 18.5604C8.74223 18.6955 8.86531 18.8062 9.00931 18.8828C9.15332 18.9594 9.31388 18.9997 9.477 19H11.519C11.669 19.0001 11.817 18.9664 11.9522 18.9015C12.0874 18.8366 12.2063 18.7421 12.3 18.625L15.7 14.375C15.7936 14.2581 15.9123 14.1637 16.0473 14.0987C16.1823 14.0338 16.3302 14.0001 16.48 14ZM9.5 8H14.25L12.3 5.4C12.2069 5.2758 12.0861 5.175 11.9472 5.10557C11.8084 5.03614 11.6552 5 11.5 5H9.618C9.44761 5.00009 9.28007 5.04372 9.13127 5.12674C8.98248 5.20977 8.85737 5.32944 8.76781 5.47439C8.67825 5.61935 8.62722 5.78479 8.61955 5.95501C8.61188 6.12522 8.64784 6.29458 8.724 6.447L9.5 8Z" fill="#74F325"/>
</svg>
