<svg width="166" height="101" viewBox="0 0 166 101" fill="none" xmlns="http://www.w3.org/2000/svg">
<path d="M0.12 82L1.02 76.42H4.8L8.52 52.6H4.8L5.64 47.02H25.02C28.82 47.02 31.74 47.8 33.78 49.36C35.86 50.88 36.9 53.18 36.9 56.26C36.9 60.26 35.64 63.24 33.12 65.2C30.64 67.16 27.24 68.14 22.92 68.14H16.98L17.82 62.56H22.14C24.26 62.56 25.84 62.04 26.88 61C27.92 59.92 28.44 58.54 28.44 56.86C28.44 55.34 27.96 54.26 27 53.62C26.08 52.94 24.64 52.6 22.68 52.6H16.74L13.02 76.42H18.36L17.52 82H0.12ZM49.8084 92.86C47.6484 92.86 45.6684 92.6 43.8684 92.08C42.1084 91.6 40.6684 90.96 39.5484 90.16L42.2484 84.94C43.2884 85.58 44.4084 86.08 45.6084 86.44C46.8484 86.8 48.1684 86.98 49.5684 86.98C51.6484 86.98 53.2884 86.48 54.4884 85.48C55.6884 84.52 56.4284 83.08 56.7084 81.16L57.6084 75.58L58.9284 75.46C57.5684 77.42 55.9484 78.9 54.0684 79.9C52.2284 80.9 50.1284 81.4 47.7684 81.4C45.2884 81.4 43.3684 80.74 42.0084 79.42C40.6884 78.1 40.2484 76.14 40.6884 73.54L42.4884 63.16H38.7084L39.5484 58H50.5884L48.2484 71.74C48.0484 73.06 48.1884 74.02 48.6684 74.62C49.1484 75.22 50.0084 75.52 51.2484 75.52C52.8484 75.52 54.2884 75.08 55.5684 74.2C56.8484 73.32 57.9484 71.98 58.8684 70.18L58.1484 72.28L59.5884 63.16H55.8084L56.5884 58H67.6284L64.0284 80.86C63.3884 84.78 61.8684 87.76 59.4684 89.8C57.1084 91.84 53.8884 92.86 49.8084 92.86Z" fill="#74F325"/>
<path d="M69.6122 82L70.5122 76.42H74.2922L78.0122 52.6H74.2922L75.1322 47.02H106.392L104.532 58.78H99.2522L100.212 52.6H86.2322L84.9722 60.94H91.3322L91.8722 57.58H96.5522L94.5122 70.24H89.8922L90.4322 66.52H84.0722L82.5122 76.42H87.8522L87.0122 82H69.6122ZM113.893 82C111.533 82 109.853 81.42 108.853 80.26C107.893 79.06 107.593 77.36 107.953 75.16L109.873 63.16H106.093L106.873 58H117.913L115.333 74.44C115.173 75.28 115.213 75.9 115.453 76.3C115.693 76.66 116.193 76.84 116.953 76.84H118.333L117.553 82H113.893ZM115.273 54.64C113.953 54.64 112.933 54.28 112.213 53.56C111.493 52.84 111.133 51.84 111.133 50.56C111.133 49.24 111.553 48.14 112.393 47.26C113.273 46.34 114.413 45.88 115.813 45.88C117.133 45.88 118.133 46.26 118.813 47.02C119.533 47.74 119.893 48.72 119.893 49.96C119.893 51.32 119.473 52.44 118.633 53.32C117.793 54.2 116.673 54.64 115.273 54.64ZM131.573 82.6C128.533 82.6 126.393 81.76 125.153 80.08C123.913 78.4 123.473 76.32 123.833 73.84L125.573 63.16H121.793L122.573 58H126.353L127.613 50.2L135.053 49L133.613 58H139.853L139.073 63.16H132.773L131.273 72.58C131.073 73.98 131.213 75.02 131.693 75.7C132.173 76.38 133.053 76.72 134.333 76.72C134.893 76.72 135.433 76.62 135.953 76.42C136.513 76.22 136.993 76 137.393 75.76L138.293 80.8C137.333 81.4 136.273 81.84 135.113 82.12C133.993 82.44 132.813 82.6 131.573 82.6Z" fill="#FF4856"/>
<path d="M117.657 56.7472L119.65 56.7472C119.65 56.7472 119.548 58.4338 117.657 58.4338L117.657 56.7472ZM117.657 55.9688C119.548 55.9688 119.65 54.2822 119.65 54.2822L117.657 54.2822L117.657 55.9688Z" fill="#D5D5D5"/>
<path d="M120.39 54.2023C119.944 54.7839 120.003 56.5434 121.277 58.2033C121.377 58.3328 121.472 58.4676 121.564 58.6071C121.574 58.6538 121.591 58.6972 121.615 58.7345C121.643 58.7785 121.643 58.8062 121.641 58.8306C121.626 58.9976 121.455 59.243 121.132 59.5598C121.108 59.5831 121.084 59.6071 121.061 59.6317C121.034 59.6608 121.011 59.6964 120.995 59.7366C120.979 59.7769 120.969 59.8209 120.965 59.8662C120.962 59.9115 120.966 59.9572 120.976 60.0006C120.986 60.0441 121.003 60.0845 121.026 60.1196C121.048 60.1546 121.075 60.1836 121.106 60.2048C121.137 60.2261 121.171 60.2392 121.205 60.2434C121.24 60.2477 121.275 60.2429 121.309 60.2295C121.342 60.2161 121.373 60.1942 121.4 60.1652C121.411 60.1529 121.429 60.1355 121.452 60.1133C121.653 59.9161 121.859 59.692 121.999 59.4385C122.2 59.9683 122.149 60.2548 122.148 60.2595C122.149 60.2513 122.151 60.2472 122.151 60.2472L122.653 60.4738C122.662 60.4414 122.687 60.332 122.687 60.1525C122.687 59.7166 122.54 58.8685 121.653 57.7133C120.55 56.2764 120.6 54.9098 120.767 54.6924C120.791 54.6602 120.811 54.622 120.824 54.5799C120.838 54.5379 120.844 54.4928 120.844 54.4473C120.844 54.4018 120.838 54.3567 120.824 54.3147C120.811 54.2727 120.791 54.2345 120.767 54.2023C120.742 54.1701 120.712 54.1446 120.68 54.1272C120.648 54.1098 120.613 54.1008 120.578 54.1008C120.543 54.1008 120.509 54.1098 120.477 54.1272C120.444 54.1446 120.415 54.1701 120.39 54.2023Z" fill="#FF4856"/>
<path d="M149.298 0.726355C148.132 0.886206 147.124 1.12266 146.271 1.38251C145.417 1.6398 144.714 1.90106 144.154 2.13432C143.596 2.36859 143.177 2.56195 142.897 2.69699L142.475 2.90543C141.986 3.14725 141.709 3.71018 141.841 4.27068C141.994 4.91801 142.634 5.31687 143.271 5.16162L143.305 5.15306L143.723 5.05113C143.998 4.98451 144.406 4.88936 144.938 4.7868C145.47 4.68488 146.125 4.57043 146.892 4.4946C147.276 4.45572 147.686 4.42759 148.121 4.40534C148.555 4.38885 149.014 4.38526 149.494 4.40508C150.452 4.44779 151.493 4.57312 152.553 4.8588C153.61 5.1473 154.687 5.60127 155.647 6.26433C156.126 6.59618 156.576 6.9765 156.964 7.40643C157.351 7.83508 157.681 8.31003 157.915 8.80122C158.152 9.29087 158.284 9.79945 158.307 10.2501C158.311 10.3068 158.31 10.3619 158.311 10.4166C158.312 10.4442 158.308 10.4706 158.308 10.4974C158.306 10.5206 158.308 10.5603 158.303 10.5634C158.3 10.5736 158.298 10.5841 158.296 10.5947L158.287 10.7438L158.281 10.8285C158.28 10.8611 158.281 10.7178 158.279 10.7859L158.275 10.8037L158.262 10.8744C158.24 10.9687 158.214 11.0617 158.183 11.1531C158.148 11.2463 158.109 11.3377 158.066 11.4271C157.889 11.7899 157.602 12.1513 157.206 12.4669C156.812 12.782 156.316 13.0523 155.749 13.2286C155.183 13.4063 154.551 13.4983 153.884 13.4937C153.55 13.4892 153.207 13.4612 152.859 13.4084C152.502 13.3503 152.148 13.2726 151.798 13.1757C151.082 12.978 150.356 12.6687 149.631 12.282C149.447 12.1839 149.266 12.0816 149.087 11.9751C149 11.9207 148.901 11.8634 148.822 11.8123L148.578 11.654L148.273 11.4497L147.874 11.1912C147.606 11.0217 147.335 10.8519 147.056 10.6908C145.944 10.0427 144.756 9.45622 143.481 8.97475C142.208 8.49239 140.847 8.11898 139.411 7.91181C137.976 7.70708 136.464 7.66552 134.921 7.87294C133.38 8.08139 131.808 8.53676 130.31 9.32399C128.817 10.1094 127.389 11.2317 126.261 12.7679C125.699 13.5342 125.217 14.4042 124.869 15.3633C124.52 16.3204 124.31 17.3687 124.284 18.4376C124.255 19.5058 124.415 20.5881 124.735 21.5881C125.054 22.5894 125.525 23.5082 126.078 24.3041C126.632 25.1024 127.261 25.7895 127.919 26.3771C128.577 26.968 129.264 27.4607 129.957 27.8904C131.346 28.7421 132.756 29.332 134.148 29.7829C135.542 30.2323 136.922 30.5387 138.285 30.7609C139.649 30.9836 140.996 31.114 142.328 31.1905C142.993 31.2258 143.656 31.2524 144.313 31.2597C144.637 31.2661 144.998 31.2648 145.32 31.2652L145.774 31.2611L146.202 31.2598C147.196 31.2636 148.152 31.354 149.04 31.5299C149.926 31.7086 150.743 31.9757 151.442 32.3243C152.142 32.6722 152.724 33.0959 153.162 33.5579C153.599 34.0201 153.892 34.5178 154.048 34.9948C154.205 35.4722 154.222 35.9241 154.147 36.294C154.07 36.6675 153.912 36.9537 153.679 37.1983C153.446 37.4422 153.114 37.6652 152.625 37.8243C152.141 37.9842 151.513 38.0683 150.81 38.0454C150.108 38.0261 149.335 37.9012 148.547 37.6982C148.145 37.5929 147.747 37.4714 147.354 37.3341C147.154 37.2644 146.954 37.19 146.754 37.1131L146.454 36.9939L146.185 36.8817L145.489 36.5769L144.714 36.2448C144.203 36.0303 143.69 35.8232 143.173 35.6234C142.167 35.2343 141.151 34.8721 140.126 34.5372C138.11 33.8792 136.126 33.3431 134.176 32.9325C132.225 32.5254 130.31 32.2397 128.431 32.0992C126.551 31.9598 124.706 31.9627 122.898 32.1671C121.093 32.3727 119.315 32.783 117.642 33.5022C116.808 33.8613 116.003 34.2984 115.26 34.8117C114.516 35.3238 113.836 35.9122 113.249 36.5418C112.659 37.1698 112.169 37.8409 111.77 38.4992C111.402 39.1086 111.088 39.7494 110.831 40.4143C110.383 41.5724 110.178 42.5644 110.055 43.3594C109.636 44.4713 109.394 45.7022 109.374 47.0012C109.299 52.0307 112.545 59.8278 116.637 60.4539C116.678 60.4601 116.719 60.4647 116.76 60.4677C117.979 60.5625 119.001 59.529 118.992 58.2855L118.954 53.0993C118.951 52.6407 119.519 52.4369 119.8 52.7957C120.952 54.2685 122.86 56.5505 122.86 55.5153C122.86 53.1788 122.844 48.7959 122.85 47.2068C122.858 45.0757 122.542 43.1126 121.864 41.5512C122.441 41.3723 123.124 41.226 123.898 41.1362C125.037 41.0018 126.359 40.983 127.796 41.0855C129.233 41.187 130.786 41.4086 132.41 41.7417C134.035 42.0721 135.734 42.5115 137.467 43.0616C138.348 43.3409 139.221 43.6438 140.086 43.9698C140.527 44.136 140.966 44.3086 141.403 44.4873L142.06 44.7621L142.802 45.0775L143.261 45.2633L143.697 45.4302C143.993 45.5403 144.291 45.6456 144.59 45.7459C145.208 45.9528 145.834 46.1344 146.466 46.2904C147.76 46.6049 149.144 46.8286 150.638 46.8525C152.126 46.8751 153.736 46.7006 155.378 46.1334C156.196 45.8494 157.019 45.4669 157.804 44.9628C158.589 44.4606 159.337 43.8397 159.991 43.1097C160.653 42.3724 161.207 41.543 161.638 40.6464C162.071 39.748 162.371 38.7875 162.536 37.8144C162.869 35.8646 162.651 33.878 162.018 32.1104C161.387 30.3367 160.35 28.7822 159.114 27.5362C157.875 26.2884 156.448 25.3398 154.981 24.6559C153.511 23.9701 152.004 23.5379 150.52 23.2739C149.036 23.015 147.57 22.9216 146.142 22.9469L145.206 22.9657C144.922 22.9677 144.676 22.972 144.393 22.9694C143.837 22.9696 143.286 22.9524 142.738 22.9295C141.644 22.8784 140.565 22.7838 139.525 22.6248C138.486 22.4674 137.482 22.2504 136.556 21.9623C135.631 21.6759 134.783 21.3147 134.091 20.8997C133.401 20.4869 132.881 20.0173 132.597 19.6136C132.451 19.4119 132.364 19.2306 132.309 19.0711C132.255 18.9107 132.232 18.7701 132.232 18.6216C132.232 18.4737 132.257 18.3145 132.318 18.1343C132.379 17.9549 132.479 17.7565 132.623 17.5539C132.909 17.1471 133.375 16.7349 133.959 16.4188C134.542 16.0995 135.24 15.8721 135.992 15.7608C136.367 15.701 136.759 15.6753 137.157 15.6699C137.564 15.6699 137.971 15.6946 138.375 15.7441C139.2 15.8497 140.04 16.0543 140.874 16.3427C141.707 16.6322 142.532 17.0092 143.336 17.4501C143.537 17.5602 143.737 17.6734 143.936 17.7895L144.622 18.1973L145.079 18.4566C145.234 18.5431 145.374 18.6145 145.523 18.6934C145.817 18.846 146.116 18.9914 146.418 19.1295C147.627 19.6822 148.91 20.1014 150.235 20.3599C151.571 20.6244 152.936 20.6958 154.291 20.5719C154.972 20.5081 155.648 20.3913 156.313 20.2226C156.977 20.0473 157.629 19.8221 158.257 19.5343C159.513 18.9639 160.683 18.1666 161.653 17.1377C162.621 16.114 163.392 14.8558 163.814 13.4651C164.024 12.7727 164.145 12.0556 164.174 11.3317L164.179 11.0632L164.18 10.8689L164.176 10.7843L164.166 10.5954L164.147 10.2899C164.14 10.1808 164.129 10.109 164.12 10.0206C164.109 9.93603 164.101 9.8506 164.087 9.76774C164.061 9.60098 164.034 9.43512 163.999 9.27348C163.731 7.97166 163.196 6.84913 162.564 5.90115C161.929 4.94972 161.183 4.17004 160.402 3.52795C159.659 2.91691 158.848 2.39711 157.985 1.97933C156.348 1.17816 154.73 0.80871 153.263 0.655123C151.943 0.518732 150.612 0.542643 149.298 0.726355Z" fill="#74F325"/>
<path d="M111.623 48.4064C111.623 47.6161 112.264 46.9754 113.054 46.9754L114.813 46.9754C115.604 46.9754 116.244 47.6161 116.244 48.4064C116.244 49.1967 115.604 49.8374 114.813 49.8374L113.054 49.8374C112.264 49.8374 111.623 49.1967 111.623 48.4064Z" fill="#2C3C47"/>
<path d="M116.471 57.5906C116.471 57.3577 116.282 57.1689 116.05 57.1689C115.817 57.1689 115.628 57.3577 115.628 57.5906C115.628 57.8235 115.817 58.0123 116.05 58.0123C116.282 58.0123 116.471 57.8235 116.471 57.5906Z" fill="#2C3C47"/>
</svg>
