<svg width="45" height="45" viewBox="0 0 45 45" fill="none" xmlns="http://www.w3.org/2000/svg">
<path d="M17.8125 7.5C21.0448 7.5 24.1448 8.78404 26.4304 11.0696C28.716 13.3552 30 16.4552 30 19.6875C30 22.725 28.8938 25.5 27.0563 27.6187L37.65 38.2125L36.3188 39.5438L25.725 28.95C23.5223 30.8402 20.715 31.878 17.8125 31.875C14.5802 31.875 11.4802 30.591 9.19464 28.3054C6.90904 26.0198 5.625 22.9198 5.625 19.6875C5.625 16.4552 6.90904 13.3552 9.19464 11.0696C11.4802 8.78404 14.5802 7.5 17.8125 7.5ZM17.8125 9.375C15.0775 9.375 12.4544 10.4615 10.5205 12.3955C8.58649 14.3294 7.5 16.9525 7.5 19.6875C7.5 22.4225 8.58649 25.0456 10.5205 26.9795C12.4544 28.9135 15.0775 30 17.8125 30C19.1668 30 20.5078 29.7333 21.7589 29.215C23.0101 28.6968 24.1469 27.9371 25.1045 26.9795C26.0621 26.0219 26.8218 24.8851 27.34 23.6339C27.8583 22.3828 28.125 21.0418 28.125 19.6875C28.125 18.3332 27.8583 16.9922 27.34 15.7411C26.8218 14.4899 26.0621 13.3531 25.1045 12.3955C24.1469 11.4379 23.0101 10.6782 21.7589 10.16C20.5078 9.64174 19.1668 9.375 17.8125 9.375Z" fill="#FF4856"/>
</svg>
