<svg width="114" height="99" viewBox="0 0 114 99" fill="none" xmlns="http://www.w3.org/2000/svg">
<path d="M105 80.8958C107.311 80.8969 109.534 81.744 111.206 83.2614C112.879 84.7789 113.874 86.8504 113.985 89.0469C114.096 91.2433 113.315 93.3961 111.803 95.0594C110.291 96.7226 108.165 97.7687 105.864 97.9809L105 98.0208H9C6.6887 98.0197 4.46643 97.1727 2.79368 95.6552C1.12093 94.1378 0.125928 92.0662 0.0148544 89.8698C-0.096219 87.6734 0.685151 85.5205 2.19705 83.8573C3.70895 82.1941 5.83548 81.148 8.136 80.9358L9 80.8958H105ZM105 40.9375C107.387 40.9375 109.676 41.8396 111.364 43.4454C113.052 45.0512 114 47.2291 114 49.5C114 51.7709 113.052 53.9488 111.364 55.5546C109.676 57.1604 107.387 58.0625 105 58.0625H9C6.61305 58.0625 4.32387 57.1604 2.63604 55.5546C0.948212 53.9488 0 51.7709 0 49.5C0 47.2291 0.948212 45.0512 2.63604 43.4454C4.32387 41.8396 6.61305 40.9375 9 40.9375H105ZM105 0.979172C107.387 0.979172 109.676 1.88129 111.364 3.48707C113.052 5.09285 114 7.27076 114 9.54167C114 11.8126 113.052 13.9905 111.364 15.5963C109.676 17.2021 107.387 18.1042 105 18.1042H9C6.61305 18.1042 4.32387 17.2021 2.63604 15.5963C0.948212 13.9905 0 11.8126 0 9.54167C0 7.27076 0.948212 5.09285 2.63604 3.48707C4.32387 1.88129 6.61305 0.979172 9 0.979172H105Z" fill="#74F325"/>
</svg>
