<svg width="73" height="69" viewBox="0 0 73 69" fill="none" xmlns="http://www.w3.org/2000/svg">
<path d="M72.3333 0.618494V47.9167C72.3333 51.3424 70.9725 54.6278 68.5501 57.0501C66.1278 59.4725 62.8424 60.8333 59.4167 60.8333C55.9909 60.8333 52.7055 59.4725 50.2832 57.0501C47.8609 54.6278 46.5 51.3424 46.5 47.9167C46.5 44.491 47.8609 41.2055 50.2832 38.7832C52.7055 36.3609 55.9909 35 59.4167 35C61.4122 35 63.2919 35.4433 64.9471 36.2525L65.6667 36.6043V35.8033V13.3017V12.6839L65.0625 12.8126L26.7292 20.9776L26.3333 21.062V21.4667V55.5833C26.3333 59.009 24.9725 62.2945 22.5501 64.7168C20.1278 67.1391 16.8424 68.5 13.4167 68.5C9.99095 68.5 6.70555 67.1391 4.2832 64.7168C1.86086 62.2945 0.5 59.009 0.5 55.5833C0.5 52.1576 1.86086 48.8722 4.2832 46.4499C6.70555 44.0275 9.99095 42.6667 13.4167 42.6667C15.4122 42.6667 17.2919 43.11 18.9471 43.9192L19.6667 44.271V43.47V11.9042L72.3333 0.618494Z" fill="#74F325" stroke="#348700"/>
</svg>
