<svg width="71" height="72" viewBox="0 0 71 72" fill="none" xmlns="http://www.w3.org/2000/svg">
<path d="M62.3333 1.5H8.66667C4.43248 1.5 1 4.93248 1 9.16667V62.8333C1 67.0675 4.43248 70.5 8.66667 70.5H62.3333C66.5675 70.5 70 67.0675 70 62.8333V9.16667C70 4.93248 66.5675 1.5 62.3333 1.5Z" fill="#74F325" stroke="#348700" stroke-width="2" stroke-linecap="round" stroke-linejoin="round"/>
<path d="M24 55.1666V16.8333H39.3333C42.3833 16.8333 45.3084 18.0449 47.4651 20.2016C49.6217 22.3583 50.8333 25.2833 50.8333 28.3333C50.8333 31.3833 49.6217 34.3084 47.4651 36.465C45.3084 38.6217 42.3833 39.8333 39.3333 39.8333H24" fill="#74F325"/>
<path d="M24 55.1666V16.8333H39.3333C42.3833 16.8333 45.3084 18.0449 47.4651 20.2016C49.6217 22.3583 50.8333 25.2833 50.8333 28.3333C50.8333 31.3833 49.6217 34.3084 47.4651 36.465C45.3084 38.6217 42.3833 39.8333 39.3333 39.8333H24" stroke="#348700" stroke-width="2" stroke-linecap="round" stroke-linejoin="round"/>
</svg>
