<svg width="92" height="92" viewBox="0 0 92 92" fill="none" xmlns="http://www.w3.org/2000/svg">
<path d="M45.9997 81C50.5959 81.0031 55.1474 80.0979 59.3927 78.3364C63.6379 76.5749 67.4933 73.9919 70.7371 70.7358L71.0893 70.3822L70.7365 70.0293L46.5 45.7929V11.5V11H46C36.7174 11 27.8151 14.6875 21.2513 21.2513C14.6875 27.815 11 36.7174 11 46C11 55.2826 14.6875 64.185 21.2513 70.7487C27.815 77.3124 36.7172 80.9999 45.9997 81ZM45.9997 81L46 80.5V81C45.9999 81 45.9998 81 45.9997 81ZM23.9161 12.9491C30.4529 8.58135 38.138 6.25006 45.9997 6.25C56.5384 6.2621 66.6421 10.4539 74.0941 17.906C81.5461 25.358 85.738 35.4618 85.75 46.0006C85.7499 53.8622 83.4186 61.5472 79.0509 68.0839C74.6832 74.6208 68.475 79.7156 61.2117 82.7242C53.9483 85.7328 45.9559 86.52 38.2452 84.9862C30.5344 83.4525 23.4517 79.6666 17.8925 74.1075C12.3334 68.5484 8.54757 61.4656 7.0138 53.7548C5.48004 46.0441 6.26722 38.0517 9.27581 30.7883C12.2844 23.525 17.3792 17.3169 23.9161 12.9491Z" fill="#74F325" stroke="#348700"/>
</svg>
