<svg width="115" height="24" viewBox="0 0 115 24" fill="none" xmlns="http://www.w3.org/2000/svg">
<path d="M57.4526 17.5579L51.5474 21.1369L53.1131 14.4263L47.9237 9.90794L54.7684 9.32636L57.4526 3.01849L60.1368 9.32636L66.9815 9.90794L61.7921 14.4263L63.3578 21.1369L57.4526 17.5579Z" fill="#FFC400"/>
<path d="M80.4526 16.5579L74.5474 20.1369L76.1131 13.4263L70.9237 8.90794L77.7684 8.32636L80.4526 2.01849L83.1368 8.32636L89.9815 8.90794L84.7921 13.4263L86.3578 20.1369L80.4526 16.5579Z" fill="#FFC400"/>
<path d="M103.453 16.5579L97.5474 20.1369L99.1131 13.4263L93.9237 8.90794L100.768 8.32636L103.453 2.01849L106.137 8.32636L112.982 8.90794L107.792 13.4263L109.358 20.1369L103.453 16.5579Z" fill="#FFC400"/>
<path d="M11.4526 17.5579L5.54735 21.1369L7.11314 14.4263L1.92368 9.90794L8.76839 9.32636L11.4526 3.01849L14.1368 9.32636L20.9815 9.90794L15.7921 14.4263L17.3578 21.1369L11.4526 17.5579Z" fill="#FFC400"/>
<path d="M34.4526 17.5579L28.5474 21.1369L30.1131 14.4263L24.9237 9.90794L31.7684 9.32636L34.4526 3.01849L37.1368 9.32636L43.9815 9.90794L38.7921 14.4263L40.3578 21.1369L34.4526 17.5579Z" fill="#FFC400"/>
</svg>
