<svg width="77" height="70" viewBox="0 0 77 70" fill="none" xmlns="http://www.w3.org/2000/svg">
<path d="M41.8335 33.4455V33.6701L42.0013 33.8192L75.2127 63.3391C75.2127 63.3392 75.2128 63.3392 75.2128 63.3393C75.7169 63.789 76.0726 64.3811 76.233 65.0373C76.3934 65.6935 76.3508 66.383 76.1109 67.0146C75.871 67.6461 75.4451 68.19 74.8894 68.5743C74.3338 68.9585 73.6746 69.1651 72.999 69.1667H4.00139C3.32627 69.165 2.66752 68.9587 2.11213 68.5748C1.55675 68.191 1.13085 67.6477 0.890678 67.0167C0.650503 66.3858 0.607347 65.6968 0.766909 65.0408C0.926375 64.3852 1.28082 63.7933 1.78349 63.3433C1.78379 63.343 1.78409 63.3427 1.78439 63.3425L34.999 33.8192L35.1668 33.6701V33.4455V27.5C35.1668 26.616 35.518 25.7681 36.1431 25.143C36.7683 24.5179 37.6161 24.1667 38.5002 24.1667C43.0045 24.1667 46.6668 20.5043 46.6668 16C46.6668 11.4957 43.0045 7.83335 38.5002 7.83335C34.1637 7.83335 30.6077 11.2278 30.3486 15.5H23.6751C23.9396 7.55044 30.4873 1.16669 38.5002 1.16669C46.6802 1.16669 53.3332 7.81957 53.3335 15.9995C53.3303 19.2874 52.2363 22.4812 50.223 25.0805C48.2096 27.6797 45.3907 29.5375 42.208 30.3625L41.8335 30.4596V30.8465V33.4455ZM13.7497 61.6263L12.7667 62.5H14.0818H62.9185H64.2336L63.2507 61.6263L38.8323 39.922L38.5002 39.6267L38.168 39.922L13.7497 61.6263Z" fill="#74F325" stroke="#348700"/>
</svg>
