<svg width="34" height="34" viewBox="0 0 34 34" fill="none" xmlns="http://www.w3.org/2000/svg">
<path d="M17 2.83331C24.8242 2.83331 31.1666 9.17573 31.1666 17C31.1666 24.8242 24.8242 31.1666 17 31.1666C9.17573 31.1666 2.83331 24.8242 2.83331 17C2.83331 9.17573 9.17573 2.83331 17 2.83331Z" fill="#74F325" fill-opacity="0.16"/>
<path d="M17 22.6666H17.0113M17 11.3333V18.4166M31.1666 17C31.1666 9.17573 24.8242 2.83331 17 2.83331C9.17573 2.83331 2.83331 9.17573 2.83331 17C2.83331 24.8242 9.17573 31.1666 17 31.1666C24.8242 31.1666 31.1666 24.8242 31.1666 17Z" stroke="#74F325" stroke-width="1.5" stroke-miterlimit="10" stroke-linecap="round" stroke-linejoin="round"/>
</svg>
