<svg width="92" height="92" viewBox="0 0 92 92" fill="none" xmlns="http://www.w3.org/2000/svg">
<path d="M80.4984 41.4613C61.3434 22.6835 30.6569 22.6835 11.5019 41.4613L4.54236 34.5018C27.562 11.8976 64.4766 11.898 87.4583 34.5015L80.4984 41.4613ZM35.2124 65.1718C36.5971 63.8688 38.2076 62.8264 39.9663 62.0965C41.879 61.3028 43.9294 60.8943 46.0002 60.8943C48.0709 60.8943 50.1214 61.3028 52.034 62.0965C53.7927 62.8264 55.4032 63.8688 56.7879 65.1718L46.0002 75.9596L35.2124 65.1718ZM46.0002 49.0656C38.8464 49.0656 31.9786 51.8412 26.8368 56.7963L19.8767 49.8361C34.4233 35.7022 57.6151 35.7028 72.1241 49.8357L65.1635 56.7963C60.0217 51.8412 53.1539 49.0656 46.0002 49.0656Z" fill="#74F325" stroke="#348700"/>
</svg>
